# xmcd CD database file
#
# Track frame offsets:
#	150
#	17382
#	35028
#	55739
#	73420
#	89481
#	109073
#	127439
#	147345
#	170025
#	187146
#	203295
#	223609
#	239230
#	262169
#
# Disc length: 3743 seconds
#
# Revision: 0
# Processed by: cddbd v1.5.2PL0 Copyright (c) Steve Scherf et al.
# Submitted via: CDex 1.51
#
DISCID=f50e9d0f
DTITLE=Sarah Vaughan - Sophisticated Lady: The Duke Ellington Songbook Collection - Disc 1
DYEAR=1979
DGENRE=Jazz
TTITLE0=Sophisticated Lady
TTITLE1=In a Sentimental Mood
TTITLE2=Lush Life
TTITLE3=Solitude
TTITLE4=Day Dream
TTITLE5=Tonight I Shall Sleep  (With a Smile on My Face)
TTITLE6=Sophisticated Lady
TTITLE7=Solitude
TTITLE8=Day Dream
TTITLE9=All Too Soon
TTITLE10=What Am I Here For
TTITLE11=I'm Just a Lucky So and So
TTITLE12=Chelsea Bridge
TTITLE13=Mood Indigo
TTITLE14=I Didn't Know About You
EXTD=YEAR: 1979
EXTT0=
EXTT1=
EXTT2=
EXTT3=
EXTT4=
EXTT5=
EXTT6=
EXTT7=
EXTT8=
EXTT9=
EXTT10=
EXTT11=
EXTT12=
EXTT13=
EXTT14=
PLAYORDER=
